<mxfile host="app.diagrams.net" agent="Mozilla/5.0 (Windows NT 10.0; Win64; x64) AppleWebKit/537.36 (KHTML, like Gecko) Chrome/135.0.0.0 Safari/537.36" version="26.2.12">
  <diagram name="Page-1" id="nxIxgLsQUE_wfLpYk2qr">
    <mxGraphModel dx="1454" dy="643" grid="1" gridSize="10" guides="1" tooltips="1" connect="1" arrows="1" fold="1" page="1" pageScale="1" pageWidth="850" pageHeight="1100" background="none" math="0" shadow="0">
      <root>
        <mxCell id="0" />
        <mxCell id="1" parent="0" />
        <mxCell id="clVKZRl2E8a5SpooWiB2-3" value="User" style="shape=umlActor;verticalLabelPosition=bottom;verticalAlign=top;html=1;outlineConnect=0;" parent="1" vertex="1">
          <mxGeometry x="790" y="420" width="30" height="60" as="geometry" />
        </mxCell>
        <mxCell id="FlA3XcC-9kOmXt7GphnG-3" value="Usecase" style="shape=umlFrame;whiteSpace=wrap;html=1;pointerEvents=0;recursiveResize=0;container=1;collapsible=0;width=160;" parent="1" vertex="1">
          <mxGeometry x="190" y="40" width="480" height="800" as="geometry" />
        </mxCell>
        <mxCell id="FlA3XcC-9kOmXt7GphnG-4" value="Upload gambar daun" style="ellipse;whiteSpace=wrap;html=1;" parent="FlA3XcC-9kOmXt7GphnG-3" vertex="1">
          <mxGeometry x="190" y="160" width="120" height="80" as="geometry" />
        </mxCell>
        <mxCell id="FlA3XcC-9kOmXt7GphnG-5" value="lihat hasil klasifikasi" style="ellipse;whiteSpace=wrap;html=1;" parent="FlA3XcC-9kOmXt7GphnG-3" vertex="1">
          <mxGeometry x="190" y="270" width="120" height="80" as="geometry" />
        </mxCell>
        <mxCell id="HDgKTc870op2evVAtmKX-1" value="scan daun cabai" style="ellipse;whiteSpace=wrap;html=1;" parent="FlA3XcC-9kOmXt7GphnG-3" vertex="1">
          <mxGeometry x="190" y="50" width="120" height="80" as="geometry" />
        </mxCell>
        <mxCell id="HDgKTc870op2evVAtmKX-2" value="Lihat kategori &amp;amp; akurasi" style="ellipse;whiteSpace=wrap;html=1;" parent="FlA3XcC-9kOmXt7GphnG-3" vertex="1">
          <mxGeometry x="190" y="570" width="120" height="80" as="geometry" />
        </mxCell>
        <mxCell id="HDgKTc870op2evVAtmKX-3" value="&lt;table&gt;&lt;tbody&gt;&lt;tr&gt;&lt;td data-end=&quot;1403&quot; data-start=&quot;1400&quot; class=&quot;max-w-[calc(var(--thread-content-max-width)*2/3)]&quot;&gt;&lt;/td&gt;&lt;/tr&gt;&lt;/tbody&gt;&lt;/table&gt;&lt;table&gt;&lt;tbody&gt;&lt;tr&gt;&lt;td data-end=&quot;1431&quot; data-start=&quot;1403&quot; class=&quot;max-w-[calc(var(--thread-content-max-width)*2/3)]&quot;&gt;Lihat deskripsi penyakit&lt;/td&gt;&lt;/tr&gt;&lt;/tbody&gt;&lt;/table&gt;" style="ellipse;whiteSpace=wrap;html=1;" parent="FlA3XcC-9kOmXt7GphnG-3" vertex="1">
          <mxGeometry x="190" y="370" width="120" height="80" as="geometry" />
        </mxCell>
        <mxCell id="HDgKTc870op2evVAtmKX-4" value="Lihat solusi penanganan" style="ellipse;whiteSpace=wrap;html=1;" parent="FlA3XcC-9kOmXt7GphnG-3" vertex="1">
          <mxGeometry x="190" y="470" width="120" height="80" as="geometry" />
        </mxCell>
        <mxCell id="HDgKTc870op2evVAtmKX-5" value="riwayat analisis" style="ellipse;whiteSpace=wrap;html=1;" parent="FlA3XcC-9kOmXt7GphnG-3" vertex="1">
          <mxGeometry x="190" y="670" width="120" height="80" as="geometry" />
        </mxCell>
        <mxCell id="HDgKTc870op2evVAtmKX-7" value="" style="endArrow=none;startArrow=none;endFill=0;startFill=0;endSize=8;html=1;verticalAlign=bottom;labelBackgroundColor=none;strokeWidth=3;rounded=0;exitX=1;exitY=0.5;exitDx=0;exitDy=0;entryX=0.5;entryY=0.5;entryDx=0;entryDy=0;entryPerimeter=0;" parent="1" source="HDgKTc870op2evVAtmKX-1" target="clVKZRl2E8a5SpooWiB2-3" edge="1">
          <mxGeometry width="160" relative="1" as="geometry">
            <mxPoint x="610" y="520" as="sourcePoint" />
            <mxPoint x="770" y="520" as="targetPoint" />
          </mxGeometry>
        </mxCell>
        <mxCell id="HDgKTc870op2evVAtmKX-8" value="" style="endArrow=none;startArrow=none;endFill=0;startFill=0;endSize=8;html=1;verticalAlign=bottom;labelBackgroundColor=none;strokeWidth=3;rounded=0;exitX=1;exitY=0.5;exitDx=0;exitDy=0;entryX=0.5;entryY=0.5;entryDx=0;entryDy=0;entryPerimeter=0;" parent="1" source="FlA3XcC-9kOmXt7GphnG-4" target="clVKZRl2E8a5SpooWiB2-3" edge="1">
          <mxGeometry width="160" relative="1" as="geometry">
            <mxPoint x="510" y="180" as="sourcePoint" />
            <mxPoint x="800" y="420" as="targetPoint" />
          </mxGeometry>
        </mxCell>
        <mxCell id="HDgKTc870op2evVAtmKX-9" value="" style="endArrow=none;startArrow=none;endFill=0;startFill=0;endSize=8;html=1;verticalAlign=bottom;labelBackgroundColor=none;strokeWidth=3;rounded=0;exitX=1;exitY=0.5;exitDx=0;exitDy=0;entryX=0.5;entryY=0.5;entryDx=0;entryDy=0;entryPerimeter=0;" parent="1" source="FlA3XcC-9kOmXt7GphnG-5" target="clVKZRl2E8a5SpooWiB2-3" edge="1">
          <mxGeometry width="160" relative="1" as="geometry">
            <mxPoint x="510" y="320" as="sourcePoint" />
            <mxPoint x="800" y="420" as="targetPoint" />
          </mxGeometry>
        </mxCell>
        <mxCell id="HDgKTc870op2evVAtmKX-13" value="" style="endArrow=none;startArrow=none;endFill=0;startFill=0;endSize=8;html=1;verticalAlign=bottom;labelBackgroundColor=none;strokeWidth=3;rounded=0;exitX=1;exitY=0.5;exitDx=0;exitDy=0;entryX=0.5;entryY=0.5;entryDx=0;entryDy=0;entryPerimeter=0;" parent="1" source="HDgKTc870op2evVAtmKX-5" target="clVKZRl2E8a5SpooWiB2-3" edge="1">
          <mxGeometry width="160" relative="1" as="geometry">
            <mxPoint x="510" y="480" as="sourcePoint" />
            <mxPoint x="800" y="480" as="targetPoint" />
          </mxGeometry>
        </mxCell>
        <mxCell id="pPGn_dmto9BrhfLhkbZu-1" value="" style="endArrow=none;startArrow=none;endFill=0;startFill=0;endSize=8;html=1;verticalAlign=bottom;labelBackgroundColor=none;strokeWidth=3;rounded=0;exitX=1;exitY=0.5;exitDx=0;exitDy=0;entryX=0.5;entryY=0.5;entryDx=0;entryDy=0;entryPerimeter=0;" edge="1" parent="1" source="HDgKTc870op2evVAtmKX-3" target="clVKZRl2E8a5SpooWiB2-3">
          <mxGeometry width="160" relative="1" as="geometry">
            <mxPoint x="510" y="360" as="sourcePoint" />
            <mxPoint x="815" y="490" as="targetPoint" />
          </mxGeometry>
        </mxCell>
        <mxCell id="pPGn_dmto9BrhfLhkbZu-2" value="" style="endArrow=none;startArrow=none;endFill=0;startFill=0;endSize=8;html=1;verticalAlign=bottom;labelBackgroundColor=none;strokeWidth=3;rounded=0;exitX=1;exitY=0.5;exitDx=0;exitDy=0;entryX=0.5;entryY=0.5;entryDx=0;entryDy=0;entryPerimeter=0;" edge="1" parent="1" source="HDgKTc870op2evVAtmKX-4" target="clVKZRl2E8a5SpooWiB2-3">
          <mxGeometry width="160" relative="1" as="geometry">
            <mxPoint x="510" y="460" as="sourcePoint" />
            <mxPoint x="800" y="490" as="targetPoint" />
          </mxGeometry>
        </mxCell>
        <mxCell id="pPGn_dmto9BrhfLhkbZu-3" value="" style="endArrow=none;startArrow=none;endFill=0;startFill=0;endSize=8;html=1;verticalAlign=bottom;labelBackgroundColor=none;strokeWidth=3;rounded=0;exitX=1;exitY=0.5;exitDx=0;exitDy=0;entryX=0.5;entryY=0.5;entryDx=0;entryDy=0;entryPerimeter=0;" edge="1" parent="1" source="HDgKTc870op2evVAtmKX-2" target="clVKZRl2E8a5SpooWiB2-3">
          <mxGeometry width="160" relative="1" as="geometry">
            <mxPoint x="510" y="560" as="sourcePoint" />
            <mxPoint x="815" y="490" as="targetPoint" />
          </mxGeometry>
        </mxCell>
      </root>
    </mxGraphModel>
  </diagram>
</mxfile>
